:SAMPLES-PER-SECOND 30
:FULLY-SPECIFIED
:DEGREES
141
root  62.1824 24.7078 0.718074 98.3049 -85.4863 -125.857
RightUpLeg  -50.8972 -14.6343 5.81493
RightLeg  81.479 -1.90213 -18.4394
RightFoot  -6.41905 0.20408 -5.74775
RightToes  0.000482159 0.542163 -0.142577
Spine  44.5229 -2.09619 7.19573
Spine1  0.525731 -0.467254 1.1022
HEad  -17.977 4.74987 -4.07509
LeftShoulder1  9.25045 -14.4593 -44.8713
LeftArm  -9.55725 -9.02741 -28.6289
LeftForeArm  46.9322 -40.6572 -6.65209
LeftHand  -0.25398 0.0180481 5.50724
RightShoulder  5.28718 9.89659 33.5107
RightArm  -14.2834 7.60114 39.8747
RightForeArm  -0.824514 38.4 8.93072
RightHand  -3.72823 10.1159 -27.8276
LeftUpLeg  -52.7964 3.34859 2.20568
LeftLeg  75.094 1.09832 5.94623
LeftFoot  3.67059 -0.359765 2.56101
LeftToes  1.06246e-005 4.65855e-005 -8.18503e-006
142
root  62.2719 24.6787 0.715386 97.7958 -85.5413 -125.958
RightUpLeg  -50.348 -14.3573 5.6521
RightLeg  81.3614 -1.99866 -18.8719
RightFoot  -6.17746 0.222577 -5.85387
RightToes  0.000482159 0.542163 -0.142577
Spine  44.1346 -2.02187 7.00267
Spine1  0.525822 -0.426125 0.985354
HEad  -19.2003 4.64539 -3.97002
LeftShoulder1  9.31763 -14.5651 -44.935
LeftArm  -9.2106 -7.79339 -27.722
LeftForeArm  41.5235 -34.163 -5.23149
LeftHand  -0.25398 0.0180481 5.50724
RightShoulder  5.48719 10.136 34.2791
RightArm  -16.3881 5.61184 38.9316
RightForeArm  -3.1304 34.4473 7.88948
RightHand  -3.15908 8.76896 -25.857
LeftUpLeg  -52.2454 2.74822 2.42281
LeftLeg  75.1088 0.8769 4.9967
LeftFoot  3.8466 -0.352611 2.46944
LeftToes  1.06246e-005 4.65855e-005 -8.18503e-006
143
root  62.3398 24.6742 0.725551 96.3255 -85.588 -124.964
RightUpLeg  -49.8393 -14.3476 5.44211
RightLeg  81.2089 -2.06259 -18.9532
RightFoot  -5.9536 0.227201 -5.67545
RightToes  0.000482159 0.542163 -0.142577
Spine  43.7169 -1.99769 6.93701
Spine1  0.623024 -0.443733 0.981105
HEad  -20.2168 4.25841 -3.96428
LeftShoulder1  9.34274 -14.6144 -44.9335
LeftArm  -7.40829 -6.132 -26.9251
LeftForeArm  34.9644 -28.2862 -4.19884
LeftHand  -0.25398 0.0180481 5.50724
RightShoulder  5.52535 10.1018 34.6548
RightArm  -18.1576 3.35011 38.2235
RightForeArm  -2.23983 31.0179 6.91792
RightHand  -2.29252 6.56583 -22.3784
LeftUpLeg  -51.7786 2.2531 2.52289
LeftLeg  75.1897 0.795909 4.67553
LeftFoot  3.94672 -0.35326 2.45354
LeftToes  1.06246e-005 4.65855e-005 -8.18503e-006
144
root  62.3615 24.6744 0.737365 95.1167 -85.5746 -123.983
RightUpLeg  -49.5671 -14.449 5.35397
RightLeg  81.1319 -2.08231 -18.9
RightFoot  -5.83533 0.228774 -5.56935
RightToes  0.000482159 0.542163 -0.142577
Spine  43.1261 -1.94812 6.90144
Spine1  0.839839 -0.456037 1.06471
HEad  -21.0517 4.08216 -4.03965
LeftShoulder1  9.35746 -14.583 -45.0889
LeftArm  -4.78808 -4.13507 -26.0214
LeftForeArm  28.9511 -23.4832 -3.62756
LeftHand  -0.25398 0.0180481 5.50724
RightShoulder  5.47508 9.93128 34.7939
RightArm  -18.9243 0.94461 37.5025
RightForeArm  -1.33528 27.9208 6.09999
RightHand  -1.73067 5.01072 -19.5433
LeftUpLeg  -51.5713 2.25008 2.50247
LeftLeg  75.5212 0.861534 5.09659
LeftFoot  3.67959 -0.324517 2.29102
LeftToes  1.06246e-005 4.65855e-005 -8.18503e-006
145
root  62.3395 24.6673 0.74086 94.9648 -85.5298 -123.846
RightUpLeg  -49.5679 -14.5014 5.3887
RightLeg  81.1985 -2.05666 -18.8803
RightFoot  -5.78213 0.235128 -5.63941
RightToes  0.000482159 0.542163 -0.142577
Spine  42.4561 -1.82829 6.74848
Spine1  1.09986 -0.426401 1.17995
HEad  -21.7612 4.2343 -4.14724
LeftShoulder1  9.37621 -14.5099 -45.3737
LeftArm  -3.77807 -1.74848 -24.972
LeftForeArm  26.8418 -19.9357 -3.89589
LeftHand  -0.25398 0.0180481 5.50724
RightShoulder  5.4297 9.80591 34.8365
RightArm  -18.5307 -1.46801 36.6936
RightForeArm  -2.32416 24.8932 5.44899
RightHand  -1.56236 4.47246 -18.5958
LeftUpLeg  -51.5594 2.7218 2.38112
LeftLeg  75.9741 0.943449 5.66944
LeftFoot  2.98667 -0.299158 2.23779
LeftToes  1.06246e-005 4.65855e-005 -8.18503e-006
146
root  62.3051 24.6575 0.741254 95.4951 -85.4609 -124.341
RightUpLeg  -49.6407 -14.4616 5.44665
RightLeg  81.3199 -2.00907 -18.838
RightFoot  -5.71454 0.238396 -5.62899
RightToes  0.000482159 0.542163 -0.142577
Spine  41.9568 -1.71047 6.56023
Spine1  1.29459 -0.394629 1.27102
HEad  -22.4292 4.39227 -4.22921
LeftShoulder1  9.36892 -14.4086 -45.603
LeftArm  -4.88233 1.02162 -24.0229
LeftForeArm  28.1262 -17.5692 -4.47193
LeftHand  -0.25398 0.0180481 5.50724
RightShoulder  5.40164 9.73263 34.8502
RightArm  -17.6357 -3.66903 35.9265
RightForeArm  -3.27076 21.581 4.96772
RightHand  -1.59208 4.57478 -18.7423
LeftUpLeg  -51.5517 3.30396 2.26316
LeftLeg  76.2516 0.963494 5.90126
LeftFoot  2.32901 -0.322932 2.57644
LeftToes  1.06246e-005 4.65855e-005 -8.18503e-006
147
root  62.2818 24.6509 0.745782 96.0086 -85.3724 -124.872
RightUpLeg  -49.6335 -14.4076 5.48966
RightLeg  81.3861 -1.97744 -18.7719
RightFoot  -5.63351 0.235391 -5.47794
RightToes  0.000482159 0.542163 -0.142577
Spine  41.7301 -1.69018 6.48232
Spine1  1.40893 -0.412828 1.26854
HEad  -23.114 4.40433 -4.24755
LeftShoulder1  9.30077 -14.2659 -45.6359
LeftArm  -6.42554 3.94361 -23.4286
LeftForeArm  29.3998 -16.0341 -4.72657
LeftHand  -0.25398 0.0180481 5.50724
RightShoulder  5.37734 9.66953 34.8611
RightArm  -17.2699 -5.56347 35.2687
RightForeArm  -1.67941 17.8437 4.91433
RightHand  -1.66029 4.9642 -18.8212
LeftUpLeg  -51.5097 3.71865 2.24901
LeftLeg  76.3152 0.939692 5.82088
LeftFoot  2.16632 -0.369159 3.00596
LeftToes  1.06246e-005 4.65855e-005 -8.18503e-006
148
root  62.2689 24.6422 0.7513 96.4586 -85.3034 -125.365
RightUpLeg  -49.603 -14.3643 5.52899
RightLeg  81.4173 -1.96877 -18.7893
RightFoot  -5.56789 0.234123 -5.38006
RightToes  0.000482159 0.542163 -0.142577
Spine  41.6554 -1.75084 6.49018
Spine1  1.56178 -0.463262 1.16048
HEad  -23.8273 4.41818 -4.23959
LeftShoulder1  9.20231 -14.121 -45.5201
LeftArm  -7.8626 6.6258 -23.1134
LeftForeArm  29.6355 -14.7506 -4.85412
LeftHand  -0.25398 0.0180481 5.50724
RightShoulder  5.36409 9.64807 34.8275
RightArm  -17.0338 -7.26478 34.7861
RightForeArm  1.37956 14.2015 5.05789
RightHand  -1.67993 5.23057 -18.5808
LeftUpLeg  -51.5208 3.99872 2.31755
LeftLeg  76.3694 0.896583 5.64077
LeftFoot  2.36951 -0.383082 3.05432
LeftToes  1.06246e-005 4.65855e-005 -8.18503e-006
149
root  62.2601 24.6269 0.751899 96.9262 -85.2819 -125.853
RightUpLeg  -49.633 -14.2689 5.54624
RightLeg  81.4785 -1.96188 -18.9006
RightFoot  -5.50414 0.236174 -5.36527
RightToes  0.000482159 0.542163 -0.142577
Spine  41.6245 -1.80654 6.49658
Spine1  1.85337 -0.491678 1.03635
HEad  -24.5875 4.44179 -4.3495
LeftShoulder1  9.14556 -14.0426 -45.4387
LeftArm  -9.05372 8.76788 -22.883
LeftForeArm  29.3936 -13.3967 -4.96118
LeftHand  -0.25398 0.0180481 5.50724
RightShoulder  5.35681 9.67085 34.7035
RightArm  -16.5542 -8.94961 34.5597
RightForeArm  4.34761 11.3995 5.13994
RightHand  -1.6398 5.14994 -18.2849
LeftUpLeg  -51.5841 4.26996 2.36186
LeftLeg  76.4811 0.848097 5.46111
LeftFoot  2.50249 -0.370745 2.83231
LeftToes  1.06246e-005 4.65855e-005 -8.18503e-006
150
root  62.2577 24.612 0.747418 96.9513 -85.2962 -125.885
RightUpLeg  -49.6792 -14.1337 5.51907
RightLeg  81.5492 -1.95058 -19.0049
RightFoot  -5.44318 0.233541 -5.29094
RightToes  0.000482159 0.542163 -0.142577
Spine  41.6665 -1.8378 6.51973
Spine1  2.22727 -0.494529 0.974905
HEad  -25.4127 4.30236 -4.70169
LeftShoulder1  9.13951 -14.0175 -45.475
LeftArm  -10.0605 10.3062 -22.7112
LeftForeArm  29.3746 -12.0544 -4.98635
LeftHand  -0.25398 0.0180481 5.50724
RightShoulder  5.33568 9.66488 34.5634
RightArm  -16.0816 -10.7127 34.5844
RightForeArm  7.16668 9.82507 5.04162
RightHand  -1.61096 5.09958 -18.0578
LeftUpLeg  -51.6085 4.49804 2.32362
LeftLeg  76.5203 0.819626 5.34151
LeftFoot  2.44796 -0.365232 2.77489
LeftToes  1.06246e-005 4.65855e-005 -8.18503e-006
151
root  62.2637 24.605 0.739413 96.399 -85.335 -125.348
RightUpLeg  -49.6811 -14.0643 5.468
RightLeg  81.5756 -1.94722 -19.0523
RightFoot  -5.42682 0.228067 -5.17566
RightToes  0.000482159 0.542163 -0.142577
Spine  41.8044 -1.87994 6.58251
Spine1  2.55995 -0.509136 0.953828
HEad  -26.2235 4.07275 -5.23204
LeftShoulder1  9.12337 -13.9703 -45.5187
LeftArm  -10.9014 11.362 -22.7207
LeftForeArm  29.6536 -10.973 -4.88911
LeftHand  -0.25398 0.0180481 5.50724
RightShoulder  5.30314 9.59854 34.5209
RightArm  -15.9468 -12.5524 34.7836
RightForeArm  9.69915 9.43731 4.84466
RightHand  -1.6432 5.43504 -17.8654
LeftUpLeg  -51.5772 4.58692 2.23776
LeftLeg  76.444 0.825566 5.33408
LeftFoot  2.40647 -0.371018 2.91092
LeftToes  1.06246e-005 4.65855e-005 -8.18503e-006
152
root  62.2723 24.6042 0.72777 96.1533 -85.4097 -125.113
RightUpLeg  -49.6765 -14.0824 5.4157
RightLeg  81.5662 -1.95233 -19.0672
RightFoot  -5.44905 0.22943 -5.17675
RightToes  0.000482159 0.542163 -0.142577
Spine  41.9723 -1.91313 6.57363
Spine1  2.8045 -0.550061 0.958846
HEad  -26.8346 4.08941 -5.76439
LeftShoulder1  9.07779 -13.8964 -45.4824
LeftArm  -11.5164 12.15 -22.9258
LeftForeArm  29.9457 -10.376 -4.72919
LeftHand  -0.25398 0.0180481 5.50724
RightShoulder  5.26473 9.50254 34.5243
RightArm  -16.1539 -14.3386 35.1682
RightForeArm  10.9373 9.96875 4.70003
RightHand  -1.66043 5.7065 -17.6255
LeftUpLeg  -51.5537 4.57985 2.15178
LeftLeg  76.361 0.845484 5.39094
LeftFoot  2.469 -0.371621 2.94511
LeftToes  1.06246e-005 4.65855e-005 -8.18503e-006
153
root  62.2769 24.6057 0.714212 96.8619 -85.5181 -125.802
RightUpLeg  -49.7212 -14.1042 5.35443
RightLeg  81.5619 -1.95272 -19.058
RightFoot  -5.44449 0.23871 -5.31703
RightToes  0.000482159 0.542163 -0.142577
Spine  42.1109 -1.88228 6.35904
Spine1  2.97337 -0.626267 1.0953
HEad  -27.087 4.47683 -6.22498
LeftShoulder1  9.05356 -13.8525 -45.4755
LeftArm  -11.9427 12.8637 -23.1813
LeftForeArm  30.0163 -10.3871 -4.56434
LeftHand  -0.25398 0.0180481 5.50724
RightShoulder  5.19639 9.3728 34.4029
RightArm  -16.5573 -15.779 35.7912
RightForeArm  10.5594 10.9733 4.63346
RightHand  -1.58045 5.35228 -17.3317
LeftUpLeg  -51.5613 4.59294 2.06575
LeftLeg  76.3264 0.855171 5.42125
LeftFoot  2.52709 -0.364286 2.8477
LeftToes  1.06246e-005 4.65855e-005 -8.18503e-006
154
root  62.2725 24.6103 0.701613 97.9606 -85.6141 -126.84
RightUpLeg  -49.8093 -14.1094 5.30129
RightLeg  81.573 -1.94281 -19.0097
RightFoot  -5.40667 0.24942 -5.50097
RightToes  0.000482159 0.542163 -0.142577
Spine  42.2026 -1.80723 5.96877
Spine1  3.06764 -0.771605 1.44006
HEad  -26.9451 4.99865 -6.64072
LeftShoulder1  9.06588 -13.8275 -45.6078
LeftArm  -12.31 13.5202 -23.4081
LeftForeArm  29.8343 -10.92 -4.39157
LeftHand  -0.25398 0.0180481 5.50724
RightShoulder  5.09438 9.20739 34.1288
RightArm  -16.9788 -16.5989 36.5397
RightForeArm  9.62621 11.945 4.59078
RightHand  -1.47017 4.70986 -17.1369
LeftUpLeg  -51.5839 4.65661 1.98076
LeftLeg  76.2999 0.856159 5.41389
LeftFoot  2.50784 -0.362414 2.83759
LeftToes  1.06246e-005 4.65855e-005 -8.18503e-006
155
root  62.255 24.6169 0.689758 99.0726 -85.6404 -127.85
RightUpLeg  -49.9201 -14.1607 5.32352
RightLeg  81.5919 -1.92446 -18.9164
RightFoot  -5.41501 0.258907 -5.69753
RightToes  0.000482159 0.542163 -0.142577
Spine  42.2309 -1.76332 5.57004
Spine1  3.07991 -0.978608 1.85341
HEad  -26.4739 5.43604 -7.0228
LeftShoulder1  9.05853 -13.7582 -45.7588
LeftArm  -12.5992 13.959 -23.6685
LeftForeArm  29.587 -11.7186 -4.22941
LeftHand  -0.25398 0.0180481 5.50724
RightShoulder  5.02103 9.10806 33.8658
RightArm  -17.1678 -16.8024 37.1707
RightForeArm  9.15315 12.656 4.56922
RightHand  -1.44882 4.57145 -17.1181
LeftUpLeg  -51.6388 4.76598 1.94747
LeftLeg  76.2944 0.852894 5.39589
LeftFoot  2.43707 -0.367816 2.93862
LeftToes  1.06246e-005 4.65855e-005 -8.18503e-006
